<?xml version="1.0" standalone="no"?>
<!DOCTYPE svg PUBLIC "-//W3C//DTD SVG 20010904//EN"
 "http://www.w3.org/TR/2001/REC-SVG-20010904/DTD/svg10.dtd">
<svg version="1.0" xmlns="http://www.w3.org/2000/svg"
 width="239.000000pt" height="222.000000pt" viewBox="0 0 239.000000 222.000000"
 preserveAspectRatio="xMidYMid meet">

<g transform="translate(0.000000,222.000000) scale(0.100000,-0.100000)"
fill="#000000" stroke="none">
<path d="M960 2110 c-260 -55 -495 -215 -644 -438 -61 -92 -101 -181 -134
-300 -24 -88 -27 -113 -27 -272 0 -151 3 -186 23 -255 62 -222 169 -394 328
-529 182 -155 387 -234 632 -243 201 -8 340 21 514 107 99 49 154 87 234 162
436 409 442 1096 11 1504 -157 150 -343 241 -554 273 -106 16 -284 12 -383 -9z
m442 -154 c170 -43 314 -129 435 -261 66 -71 154 -206 157 -241 1 -11 -16 -21
-54 -33 -275 -86 -545 -354 -646 -642 -20 -57 -27 -100 -31 -186 -3 -62 -7
-113 -9 -113 -2 0 -25 23 -51 51 -75 81 -146 184 -212 312 -78 152 -141 245
-218 323 -120 123 -257 206 -411 250 -15 4 19 85 73 170 46 73 180 206 259
259 73 47 172 90 269 115 112 29 316 27 439 -4z m655 -693 c4 -21 8 -99 7
-173 -1 -104 -6 -153 -23 -215 -25 -93 -83 -219 -135 -290 -98 -136 -261 -265
-333 -265 -51 0 -114 41 -145 94 -20 35 -23 55 -23 136 0 110 14 166 66 270
105 212 293 384 498 456 36 13 69 24 73 24 4 0 11 -17 15 -37z m-1630 -28
c184 -86 319 -227 432 -453 78 -156 153 -265 243 -355 63 -62 161 -132 221
-157 32 -13 57 -27 57 -31 0 -12 -101 -23 -215 -21 -419 4 -768 297 -856 717
-14 65 -17 272 -6 318 9 33 16 32 124 -18z"/>
<path d="M1086 1715 c-85 -30 -136 -112 -136 -219 0 -81 21 -128 80 -179 110
-94 278 -67 354 57 26 42 30 58 30 120 1 105 -48 184 -136 220 -46 19 -140 20
-192 1z"/>
</g>
</svg>
